<?xml version="1.0" encoding="UTF-8" standalone="no"?><svg xmlns="http://www.w3.org/2000/svg" xmlns:xlink="http://www.w3.org/1999/xlink" contentScriptType="text/ecmascript" fill="#000000" width="170.3" zoomAndPan="magnify" contentStyleType="text/css" viewBox="-2.9 0.4 170.3 312.1" height="312.1" preserveAspectRatio="xMidYMid meet" version="1"><g><g><path fill="#ffffff" d="M 60.453125 0.964844 C 60.066406 0.960938 59.679688 0.960938 59.289062 0.96875 C 34.351562 1.519531 21.046875 26.277344 24.574219 46.664062 C 27.058594 61.03125 31.972656 70.339844 39.324219 75.859375 C 35.375 78.757812 31.957031 81.636719 29.871094 83.460938 C 28.898438 83.925781 27.964844 84.4375 27.070312 84.988281 C 22.945312 86.5 21.238281 89.167969 21.238281 89.167969 C 10.335938 99.03125 1.410156 136.203125 0.1875 147.707031 C 0.1875 147.707031 -2.949219 163.15625 21.222656 153.433594 C 22.105469 153.078125 22.960938 152.722656 23.804688 152.367188 C 23.761719 152.585938 23.722656 152.8125 23.679688 153.042969 C 23.644531 153.222656 23.613281 153.386719 23.578125 153.578125 C 23.4375 154.335938 23.292969 155.132812 23.136719 156.003906 C 21.121094 167.28125 18.003906 187.617188 18.769531 201.878906 C 20.945312 202.601562 23.28125 203.253906 25.734375 203.84375 C 25.726562 204.75 25.722656 205.652344 25.71875 206.554688 C 25.71875 206.574219 25.71875 206.59375 25.71875 206.609375 C 25.414062 254.316406 27.421875 301.042969 27.421875 301.042969 L 41.804688 300.925781 C 39.101562 302.769531 33.742188 308.75 34.570312 311.078125 C 34.875 312.507812 55.855469 312.199219 55.601562 311.078125 C 56.921875 310.859375 56.210938 302.90625 55.207031 300.820312 L 63.652344 300.75 C 62.632812 302.726562 61.890625 310.859375 63.226562 311.078125 C 62.972656 312.199219 83.949219 312.507812 84.257812 311.078125 C 85.132812 308.613281 79.070312 302.054688 76.574219 300.644531 L 91.105469 300.527344 C 91.105469 300.527344 92.832031 252.714844 92.410156 206.128906 C 92.410156 206.121094 92.410156 206.117188 92.410156 206.113281 C 92.398438 205.148438 92.390625 204.1875 92.378906 203.222656 C 94.066406 202.691406 95.667969 202.117188 97.152344 201.480469 C 99.515625 198.179688 93.523438 168.4375 90.355469 150.570312 C 90.355469 150.550781 90.351562 150.527344 90.351562 150.503906 C 90.34375 150.429688 90.328125 150.355469 90.316406 150.28125 C 89.882812 145.546875 91.414062 132.730469 91.863281 127.304688 C 92.542969 128.289062 93.265625 129.171875 94.023438 129.914062 C 99.328125 138.8125 110.714844 154.652344 120.886719 146.972656 C 134.707031 136.539062 150.78125 116.796875 150.78125 116.796875 L 148.902344 114.644531 C 149.414062 114.238281 149.933594 113.851562 150.457031 113.480469 C 156.355469 112.445312 160.265625 110.855469 164 105.554688 C 167.394531 101.089844 160.925781 88.003906 156.328125 89.296875 C 154.941406 89.6875 153.453125 90.90625 152.089844 92.347656 L 163.117188 23.582031 L 160.570312 23.339844 L 149.683594 91.222656 C 149.621094 91.15625 149.542969 91.105469 149.453125 91.066406 C 146.253906 89.753906 142.496094 102.40625 142.023438 105.398438 C 141.992188 105.613281 141.796875 105.882812 141.515625 106.179688 L 137.242188 101.285156 L 117.785156 120.472656 C 117.101562 119.453125 97.835938 90.730469 95.421875 89.5625 C 95.421875 89.5625 93.714844 86.898438 89.59375 85.386719 C 89.59375 85.386719 85.300781 81.058594 79.585938 76.523438 C 86.613281 70.671875 91.160156 60.589844 94.007812 46.664062 C 98.089844 26.710938 84.660156 1.230469 60.453125 0.964844 Z M 149.042969 95.234375 L 148.859375 96.371094 C 147.839844 97.820312 147.1875 98.914062 147.1875 98.914062 C 147.1875 98.914062 148.238281 97.113281 149.042969 95.234375 Z M 117.277344 120.976562 L 116.9375 121.308594 L 116.851562 121.191406 Z M 117.277344 120.976562"/></g><g><path fill="#382821" d="M 160.570312 23.339844 L 163.117188 23.582031 L 147.929688 118.28125 L 145.382812 118.035156 Z M 160.570312 23.339844"/></g><g><path fill="#ffca9a" d="M 149.453125 91.066406 C 151.324219 91.835938 147.1875 98.914062 147.1875 98.914062 C 147.1875 98.914062 152.214844 90.453125 156.328125 89.296875 C 160.925781 88.003906 167.394531 101.089844 164 105.554688 C 160.265625 110.855469 156.355469 112.445312 150.457031 113.480469 C 137.828125 122.410156 128.324219 141.578125 114.308594 145.042969 C 109.84375 145.949219 106.480469 141.886719 106.078125 137.316406 C 105.996094 133.609375 125.316406 119.21875 137.738281 109.332031 C 138.585938 108.390625 141.875 106.367188 142.023438 105.398438 C 142.496094 102.40625 146.253906 89.753906 149.453125 91.066406 Z M 149.453125 91.066406"/></g><g><path fill="#ffca9a" d="M 96.257812 128.667969 C 99.914062 135.40625 107.15625 142.808594 110.449219 144.300781 L 121 135.546875 L 111.140625 120.65625 Z M 96.257812 128.667969"/></g><g><path fill="#ffb07e" d="M 7.441406 122.761719 C 4.226562 129.722656 2.625 139.949219 3.402344 143.484375 L 16.726562 146.703125 L 22.765625 129.894531 Z M 7.441406 122.761719"/></g><g><path fill="#ffca9a" d="M 34.242188 225.398438 L 54.503906 225.710938 L 54.902344 300.382812 C 54.902344 300.382812 46.71875 302.6875 42.90625 300.382812 Z M 34.242188 225.398438"/></g><g><path fill="#232323" d="M 42.90625 300.382812 C 46.5625 301.230469 51.308594 301.117188 54.902344 300.382812 C 56.050781 301.25 57.050781 310.839844 55.601562 311.078125 C 55.855469 312.199219 34.875 312.507812 34.570312 311.078125 C 33.601562 308.355469 41.097656 300.636719 42.90625 300.382812 Z M 42.90625 300.382812"/></g><g><path fill="#ffca9a" d="M 84.582031 225.398438 L 64.320312 225.710938 L 63.925781 300.382812 C 63.925781 300.382812 72.105469 302.6875 75.917969 300.382812 Z M 84.582031 225.398438"/></g><g><path fill="#232323" d="M 75.917969 300.382812 C 72.261719 301.230469 67.515625 301.117188 63.925781 300.382812 C 62.777344 301.25 61.773438 310.839844 63.222656 311.078125 C 62.972656 312.199219 83.949219 312.507812 84.253906 311.078125 C 85.222656 308.355469 77.726562 300.636719 75.917969 300.382812 Z M 75.917969 300.382812"/></g><g><path fill="#e2b467" d="M 29.332031 148.582031 L 88.574219 148.582031 C 89.558594 148.582031 90.261719 149.445312 90.351562 150.503906 C 94.648438 202.617188 91.105469 300.527344 91.105469 300.527344 L 27.421875 301.042969 C 27.421875 301.042969 23.421875 208.054688 27.558594 150.503906 C 27.632812 149.445312 28.351562 148.582031 29.332031 148.582031 Z M 29.332031 148.582031"/></g><g><path fill="#d5a553" d="M 91.746094 175.390625 C 73.125 175.890625 41.367188 177.1875 26.144531 180.417969 C 25.90625 188.992188 25.773438 197.816406 25.714844 206.609375 C 36.753906 208.535156 55.714844 211.59375 55.714844 211.59375 L 58.261719 200.984375 L 60.382812 211.59375 L 92.410156 206.128906 C 92.3125 195.625 92.105469 185.203125 91.746094 175.390625 Z M 91.746094 175.390625"/></g><g><path fill="#e2b467" d="M 55.503906 79.167969 C 50.917969 79.199219 47.035156 79.5 41.222656 80.597656 C 35.710938 80.910156 31.035156 82.539062 27.070312 84.988281 C 25.574219 97.28125 18.667969 107.519531 22.492188 126.023438 C 23.25 129.691406 23.636719 138.972656 24.730469 147.667969 C 24.730469 147.667969 17.660156 181.175781 18.769531 201.878906 C 28.242188 205.027344 40.644531 206.917969 53.222656 207.375 C 54.628906 207.425781 56.039062 194.652344 57.445312 194.667969 C 58.84375 194.679688 60.242188 207.488281 61.636719 207.464844 C 75.128906 207.261719 88.117188 205.339844 97.152344 201.480469 C 99.523438 198.167969 93.480469 168.226562 90.320312 150.378906 C 89.792969 145.03125 91.921875 128.6875 91.984375 125.398438 C 92.6875 87.527344 92.308594 98.578125 88.941406 84.988281 C 84.972656 82.539062 80.300781 80.910156 74.785156 80.597656 C 68.972656 79.5 65.089844 79.199219 60.507812 79.167969 C 59.851562 79.164062 59.179688 79.164062 58.488281 79.167969 C 58.324219 79.167969 58.167969 79.171875 58.003906 79.171875 C 57.839844 79.167969 57.6875 79.167969 57.519531 79.167969 C 56.828125 79.164062 56.160156 79.164062 55.503906 79.167969 Z M 55.503906 79.167969"/></g><g><path fill="#e2b467" d="M 27.070312 84.988281 C 22.945312 86.5 21.238281 89.167969 21.238281 89.167969 C 10.335938 99.03125 1.410156 136.203125 0.1875 147.707031 L 18.015625 152.597656 L 25.183594 120.675781 L 25.671875 131.519531 C 25.671875 131.519531 31.351562 113.0625 31.40625 108.027344 L 32.613281 96.957031 Z M 27.070312 84.988281"/></g><g><path fill="#d5a553" d="M 22.945312 97.449219 C 23.226562 97.433594 23.464844 97.648438 23.480469 97.929688 L 25.382812 129.695312 C 25.398438 129.976562 25.183594 130.21875 24.902344 130.234375 C 24.625 130.25 24.382812 130.039062 24.367188 129.757812 L 22.46875 97.988281 C 22.449219 97.707031 22.664062 97.46875 22.945312 97.449219 Z M 22.945312 97.449219"/></g><g><path fill="#e2b467" d="M 89.59375 85.386719 C 93.714844 86.898438 95.421875 89.5625 95.421875 89.5625 C 97.878906 90.75 117.90625 120.65625 117.90625 120.65625 L 96.320312 131.609375 C 89.847656 128.339844 85.3125 113.457031 85.257812 108.421875 L 84.046875 97.351562 Z M 89.59375 85.386719"/></g><path stroke-linecap="round" transform="matrix(.1 0 0 -.1 0 313)" fill="none" stroke-linejoin="round" d="M 576.875 2152.890625 L 576.875 1206.953125" stroke="#d5a553" stroke-width="8.131"/><g><path fill="#d5a553" d="M 28.480469 163.457031 L 45.871094 164.835938 C 46.359375 164.875 46.722656 165.296875 46.683594 165.785156 L 46.492188 168.207031 C 46.453125 168.695312 46.027344 169.058594 45.542969 169.019531 L 28.148438 167.640625 C 27.660156 167.601562 27.300781 167.179688 27.339844 166.691406 L 27.53125 164.269531 C 27.570312 163.78125 27.992188 163.417969 28.480469 163.457031 Z M 28.480469 163.457031"/></g><g><path fill="#d5a553" d="M 85.292969 163.457031 L 67.902344 164.835938 C 67.414062 164.875 67.050781 165.296875 67.089844 165.785156 L 67.28125 168.207031 C 67.320312 168.695312 67.746094 169.058594 68.230469 169.019531 L 85.625 167.640625 C 86.113281 167.601562 86.472656 167.179688 86.4375 166.691406 L 86.242188 164.269531 C 86.207031 163.78125 85.78125 163.417969 85.292969 163.457031 Z M 85.292969 163.457031"/></g><g><path fill="#ebcc97" d="M 94.007812 46.664062 C 89.070312 70.796875 79.03125 83.394531 59.839844 82.402344 C 40.644531 81.414062 28.914062 71.742188 24.574219 46.664062 C 21.046875 26.277344 34.351562 1.519531 59.289062 0.96875 C 84.226562 0.421875 98.15625 26.394531 94.007812 46.664062 Z M 94.007812 46.664062"/></g><g><path fill="#ebcc97" d="M 89.59375 85.386719 C 89.59375 85.386719 78.179688 117.859375 59.527344 118.585938 C 40.875 119.3125 27.722656 85.386719 27.722656 85.386719 C 27.722656 85.386719 48.15625 66.328125 59.335938 66.285156 C 70.621094 66.246094 89.59375 85.386719 89.59375 85.386719 Z M 89.59375 85.386719"/></g><g><path fill="#ffca9a" d="M 84.914062 46.597656 C 83.136719 69.785156 66.117188 70.011719 59.5 70.210938 C 52.882812 70.40625 33.949219 69.339844 32.429688 46.597656 C 31.394531 31.105469 39.855469 11.835938 58.964844 11.691406 C 78.078125 11.546875 86.078125 31.382812 84.914062 46.597656 Z M 84.914062 46.597656"/></g><g><path fill="#fa965e" d="M 59.210938 42.585938 C 58.980469 42.59375 58.804688 42.753906 58.8125 42.945312 C 58.8125 42.945312 58.851562 43.621094 58.703125 44.484375 C 58.554688 45.347656 58.210938 46.378906 57.523438 47.066406 C 57.082031 47.503906 56.929688 47.96875 57.054688 48.363281 C 57.179688 48.757812 57.523438 49.035156 57.875 49.238281 C 58.585938 49.640625 59.441406 49.800781 59.441406 49.800781 C 59.664062 49.84375 59.890625 49.730469 59.941406 49.542969 C 59.996094 49.359375 59.859375 49.171875 59.632812 49.128906 C 59.632812 49.128906 58.871094 48.96875 58.347656 48.667969 C 58.085938 48.515625 57.910156 48.34375 57.859375 48.1875 C 57.808594 48.03125 57.832031 47.835938 58.160156 47.507812 C 59.015625 46.65625 59.367188 45.511719 59.527344 44.582031 C 59.6875 43.652344 59.644531 42.914062 59.644531 42.914062 C 59.636719 42.722656 59.441406 42.578125 59.210938 42.585938 Z M 59.210938 42.585938"/></g><g><path fill="#fe986f" d="M 42.914062 50.164062 C 42.914062 52.710938 40.796875 54.777344 38.179688 54.777344 C 35.5625 54.777344 33.441406 52.710938 33.441406 50.164062 C 33.441406 47.613281 35.5625 45.546875 38.179688 45.546875 C 40.796875 45.546875 42.914062 47.613281 42.914062 50.164062 Z M 42.914062 50.164062"/></g><g><path fill="#4c392f" d="M 50.042969 41.824219 C 50.042969 43.617188 49.078125 45.074219 47.886719 45.074219 C 46.691406 45.074219 45.726562 43.617188 45.726562 41.824219 C 45.726562 40.03125 46.691406 38.574219 47.886719 38.574219 C 49.078125 38.574219 50.042969 40.03125 50.042969 41.824219 Z M 50.042969 41.824219"/></g><g><path fill="#fa6d46" d="M 52.953125 53.828125 C 55.449219 59.042969 63.757812 58 65.660156 53.832031 C 61.523438 55.957031 56.972656 55.976562 52.953125 53.828125 Z M 52.953125 53.828125"/></g><g><path fill="#4c392f" d="M 46.175781 32.773438 C 45.058594 32.796875 44 33.148438 43.03125 33.773438 C 42.761719 33.949219 42.683594 34.3125 42.859375 34.585938 C 43.035156 34.855469 43.398438 34.933594 43.667969 34.757812 C 45.3125 33.699219 46.96875 33.542969 49.078125 34.773438 C 49.359375 34.9375 49.71875 34.839844 49.882812 34.5625 C 50.046875 34.28125 49.949219 33.921875 49.671875 33.757812 C 48.46875 33.058594 47.292969 32.75 46.175781 32.773438 Z M 46.175781 32.773438"/></g><g><path fill="#fe986f" d="M 83.761719 49.078125 C 83.761719 51.628906 81.640625 53.695312 79.023438 53.695312 C 76.40625 53.695312 74.289062 51.628906 74.289062 49.078125 C 74.289062 46.53125 76.40625 44.464844 79.023438 44.464844 C 81.640625 44.464844 83.761719 46.53125 83.761719 49.078125 Z M 83.761719 49.078125"/></g><g><path fill="#4c392f" d="M 47.609375 38.628906 C 47.484375 38.636719 47.390625 38.746094 47.398438 38.871094 C 47.394531 38.78125 47.429688 38.738281 47.445312 38.722656 C 47.460938 38.703125 47.46875 38.703125 47.464844 38.703125 C 47.464844 38.703125 47.445312 38.714844 47.414062 38.730469 C 47.351562 38.761719 47.242188 38.800781 47.105469 38.84375 C 46.828125 38.929688 46.417969 39.023438 45.921875 39.085938 C 44.933594 39.214844 43.601562 39.214844 42.25 38.78125 C 42.132812 38.742188 42.003906 38.808594 41.964844 38.925781 C 41.925781 39.046875 41.992188 39.175781 42.113281 39.214844 C 43.546875 39.675781 44.941406 39.671875 45.980469 39.539062 C 46.5 39.472656 46.929688 39.375 47.238281 39.28125 C 47.390625 39.234375 47.511719 39.1875 47.605469 39.144531 C 47.652344 39.125 47.691406 39.105469 47.730469 39.078125 C 47.75 39.0625 47.769531 39.046875 47.792969 39.019531 C 47.816406 38.988281 47.859375 38.9375 47.855469 38.839844 C 47.84375 38.714844 47.734375 38.621094 47.609375 38.628906 Z M 47.609375 38.628906"/></g><g><path fill="#4c392f" d="M 67.761719 41.824219 C 67.761719 43.617188 68.730469 45.074219 69.921875 45.074219 C 71.113281 45.074219 72.082031 43.617188 72.082031 41.824219 C 72.082031 40.03125 71.113281 38.574219 69.921875 38.574219 C 68.730469 38.574219 67.761719 40.03125 67.761719 41.824219 Z M 67.761719 41.824219"/></g><g><path fill="#4c392f" d="M 70.617188 32.773438 C 69.5 32.75 68.324219 33.058594 67.121094 33.757812 C 66.839844 33.921875 66.746094 34.28125 66.90625 34.5625 C 67.070312 34.839844 67.429688 34.9375 67.710938 34.773438 C 69.820312 33.542969 71.476562 33.699219 73.121094 34.757812 C 73.394531 34.933594 73.757812 34.855469 73.933594 34.585938 C 74.109375 34.3125 74.03125 33.949219 73.757812 33.773438 C 72.789062 33.148438 71.734375 32.796875 70.617188 32.773438 Z M 70.617188 32.773438"/></g><g><path fill="#4c392f" d="M 70.195312 38.628906 C 70.070312 38.621094 69.960938 38.714844 69.953125 38.839844 C 69.945312 38.9375 69.988281 38.988281 70.011719 39.019531 C 70.039062 39.046875 70.058594 39.0625 70.078125 39.078125 C 70.117188 39.105469 70.152344 39.125 70.199219 39.144531 C 70.292969 39.1875 70.414062 39.234375 70.566406 39.28125 C 70.875 39.375 71.304688 39.472656 71.824219 39.539062 C 72.863281 39.671875 74.261719 39.675781 75.695312 39.214844 C 75.8125 39.175781 75.878906 39.046875 75.839844 38.925781 C 75.804688 38.808594 75.675781 38.742188 75.554688 38.78125 C 74.203125 39.214844 72.871094 39.214844 71.882812 39.085938 C 71.386719 39.023438 70.980469 38.929688 70.703125 38.84375 C 70.5625 38.800781 70.453125 38.761719 70.390625 38.730469 C 70.359375 38.714844 70.339844 38.703125 70.339844 38.703125 C 70.339844 38.703125 70.34375 38.703125 70.359375 38.722656 L 70.359375 38.730469 C 70.320312 38.671875 70.261719 38.636719 70.195312 38.628906 Z M 70.195312 38.628906"/></g><g><path fill="#c59c7e" d="M 39.164062 96.984375 L 66.554688 96.980469 C 67.902344 96.980469 69.011719 98.0625 69.039062 99.414062 L 69.859375 139.675781 C 69.886719 141.023438 68.824219 142.109375 67.472656 142.113281 L 40.082031 142.117188 C 38.734375 142.117188 37.625 141.03125 37.597656 139.683594 L 36.777344 99.417969 C 36.75 98.070312 37.816406 96.984375 39.164062 96.984375 Z M 39.164062 96.984375"/></g><g><path fill="#d5a553" d="M 56.304688 134.5625 C 54.582031 134.5625 34.84375 135.875 23.679688 137.25 C 23.960938 140.550781 24.289062 144.148438 24.730469 147.667969 C 24.730469 147.667969 24.039062 150.953125 23.121094 156.097656 C 36.683594 152.097656 56.304688 134.5625 56.304688 134.5625 Z M 56.304688 134.5625"/></g><g><path fill="#f9ece2" d="M 35.289062 97.574219 L 62.535156 94.804688 C 63.878906 94.667969 65.089844 95.636719 65.253906 96.972656 L 70.136719 136.949219 C 70.300781 138.289062 69.351562 139.476562 68.007812 139.613281 L 40.757812 142.382812 C 39.417969 142.519531 38.203125 141.550781 38.042969 140.210938 L 33.160156 100.238281 C 32.996094 98.898438 33.945312 97.710938 35.289062 97.574219 Z M 35.289062 97.574219"/></g><g><path fill="#ffca9a" d="M 55.945312 109.929688 C 57.921875 110.351562 54.960938 119.082031 54.960938 119.082031 C 54.960938 119.082031 65.449219 115.664062 69.695312 116.109375 C 74.445312 116.605469 74.074219 129.164062 69.269531 132.058594 C 63.839844 135.605469 59.617188 135.636719 53.757812 134.417969 C 38.722656 138.050781 22.808594 152.351562 8.5 150.390625 C 4.019531 149.582031 2.394531 144.566406 3.710938 140.167969 C 5.003906 136.691406 28.277344 130.460938 43.472656 125.863281 C 44.605469 125.300781 48.410156 124.636719 48.910156 123.792969 C 50.449219 121.183594 53.914062 109.5 55.945312 109.929688 Z M 55.945312 109.929688"/></g><g><path fill="#e2b467" d="M 0.1875 147.707031 C 0.1875 147.707031 -2.949219 163.15625 21.222656 153.433594 C 45.394531 143.710938 53.757812 134.417969 53.757812 134.417969 L 47.898438 119.398438 L 11.304688 133.433594 C 4.839844 133.101562 2.1875 143.585938 0.1875 147.707031 Z M 0.1875 147.707031"/></g><g><path fill="#e2b467" d="M 90.992188 124.410156 C 90.992188 124.410156 107.066406 157.40625 120.886719 146.972656 C 134.703125 136.539062 150.78125 116.796875 150.78125 116.796875 L 137.242188 101.285156 L 116.9375 121.308594 L 95.222656 91.980469 Z M 90.992188 124.410156"/></g><g><path fill="#d5a553" d="M 92.585938 97.449219 C 92.304688 97.433594 92.0625 97.648438 92.046875 97.929688 L 90.148438 129.695312 C 90.128906 129.976562 90.34375 130.21875 90.625 130.234375 C 90.90625 130.25 91.144531 130.039062 91.160156 129.757812 L 93.0625 97.988281 C 93.078125 97.707031 92.863281 97.46875 92.585938 97.449219 Z M 92.585938 97.449219"/></g><path stroke-linecap="round" transform="matrix(.1 0 0 -.1 0 313)" fill="none" stroke-linejoin="round" d="M 467.148438 1925.351562 L 125.898438 1792.8125" stroke="#d5a553" stroke-width="13.483"/></g></svg>